arm26_states
version=1
nRows=34
nColumns=17
inDegrees=yes

# SIMM Motion File Header:
name arm26_states
datacolumns 17
datarows 34
otherdata 1
range 1.55529965 1.55624439
endheader
time	/jointset/r_shoulder/r_shoulder_elev/value	/jointset/r_shoulder/r_shoulder_elev/speed	/jointset/r_elbow/r_elbow_flex/value	/jointset/r_elbow/r_elbow_flex/speed	/forceset/TRIlong/activation	/forceset/TRIlong/fiber_length	/forceset/TRIlat/activation	/forceset/TRIlat/fiber_length	/forceset/TRImed/activation	/forceset/TRImed/fiber_length	/forceset/BIClong/activation	/forceset/BIClong/fiber_length	/forceset/BICshort/activation	/forceset/BICshort/fiber_length	/forceset/BRA/activation	/forceset/BRA/fiber_length
      1.55529965	     29.50161824	     -0.61160566	     -3.15841631	   -386.93600942	     -0.30312514	      0.15398091	      0.46715616	      0.06834624	      0.46715616	      0.06351574	      0.67090884	      0.16780937	     -0.11217185	      0.15184946	     -0.27646059	      0.09368154
      1.55529976	     29.50161817	     -0.62238383	     -3.15846086	   -386.90956968	     -0.30312516	      0.15398090	      0.46715623	      0.06834623	      0.46715623	      0.06351573	      0.67090894	      0.16782610	     -0.11217187	      0.15184947	     -0.27646061	      0.09368153
      1.55529988	     29.50161810	     -0.62207663	     -3.15850541	   -386.91075155	     -0.30312517	      0.15398089	      0.46715630	      0.06834621	      0.46715630	      0.06351572	      0.67090904	      0.16782565	     -0.11217189	      0.15184948	     -0.27646062	      0.09368151
      1.55530045	     29.50161774	     -0.62054067	     -3.15872817	   -386.91666089	     -0.30312525	      0.15398082	      0.46715664	      0.06834614	      0.46715664	      0.06351565	      0.67090953	      0.16782341	     -0.11217196	      0.15184950	     -0.27646070	      0.09368144
      1.55530333	     29.50161596	     -0.61286126	     -3.15984204	   -386.94620635	     -0.30312562	      0.15398048	      0.46715834	      0.06834580	      0.46715834	      0.06351530	      0.67091197	      0.16781222	     -0.11217234	      0.15184964	     -0.27646107	      0.09368106
      1.55531773	     29.50160742	     -0.57447485	     -3.16541263	   -387.09390359	     -0.30312747	      0.15397880	      0.46716687	      0.06834406	      0.46716687	      0.06351358	      0.67092420	      0.16775636	     -0.11217425	      0.15185035	     -0.27646293	      0.09367918
      1.55538969	     29.50157298	     -0.38281068	     -3.19329745	   -387.83162978	     -0.30313674	      0.15397038	      0.46720948	      0.06833538	      0.46720948	      0.06350496	      0.67098533	      0.16747980	     -0.11218377	      0.15185388	     -0.27647222	      0.09366978
      1.55574953	     29.50160674	      0.56850887	     -3.33351535	   -391.50039430	     -0.30318310	      0.15392834	      0.46742256	      0.06829200	      0.46742256	      0.06346188	      0.67129096	      0.16616025	     -0.11223139	      0.15187143	     -0.27651869	      0.09362272
      1.55576493	     29.50161581	      0.60895729	     -3.33954641	   -391.65665896	     -0.30318509	      0.15392654	      0.46743168	      0.06829015	      0.46743168	      0.06346003	      0.67130404	      0.16610596	     -0.11223342	      0.15187218	     -0.27652068	      0.09362070
      1.55576684	     29.50161698	      0.61397052	     -3.34029431	   -391.67602821	     -0.30318533	      0.15392632	      0.46743281	      0.06828992	      0.46743281	      0.06345980	      0.67130566	      0.16609924	     -0.11223368	      0.15187228	     -0.27652093	      0.09362044
      1.55576827	     29.50161786	      0.61772506	     -3.34085449	   -391.69053461	     -0.30318552	      0.15392615	      0.46743366	      0.06828974	      0.46743366	      0.06345963	      0.67130688	      0.16609421	     -0.11223387	      0.15187235	     -0.27652111	      0.09362026
      1.55576866	     29.50161810	      0.61872880	     -3.34100426	   -391.69441280	     -0.30318556	      0.15392611	      0.46743388	      0.06828970	      0.46743388	      0.06345959	      0.67130720	      0.16609286	     -0.11223392	      0.15187237	     -0.27652116	      0.09362021
      1.55576883	     29.50161820	      0.61574018	     -3.34107283	   -391.68760659	     -0.30318559	      0.15392609	      0.46743399	      0.06828968	      0.46743399	      0.06345957	      0.67130735	      0.16609750	     -0.11223394	      0.15187237	     -0.27652118	      0.09362018
      1.55576901	     29.50161831	      0.59551785	     -3.34114140	   -391.63790922	     -0.30318561	      0.15392607	      0.46743409	      0.06828966	      0.46743409	      0.06345955	      0.67130750	      0.16612841	     -0.11223396	      0.15187238	     -0.27652120	      0.09362016
      1.55576988	     29.50161879	      0.49456903	     -3.34148410	   -391.38982790	     -0.30318572	      0.15392597	      0.46743461	      0.06828955	      0.46743461	      0.06345944	      0.67130824	      0.16628289	     -0.11223408	      0.15187242	     -0.27652132	      0.09362005
      1.55577426	     29.50161985	     -0.00611033	     -3.34319439	   -390.15954520	     -0.30318629	      0.15392545	      0.46743720	      0.06828902	      0.46743720	      0.06345892	      0.67131196	      0.16705367	     -0.11223466	      0.15187264	     -0.27652188	      0.09361947
      1.55577657	     29.50161954	     -0.26778822	     -3.34409541	   -389.51663447	     -0.30318658	      0.15392519	      0.46743857	      0.06828874	      0.46743857	      0.06345864	      0.67131392	      0.16745962	     -0.11223496	      0.15187275	     -0.27652218	      0.09361917
      1.55577819	     29.50161896	     -0.45013720	     -3.34472627	   -389.06866307	     -0.30318679	      0.15392500	      0.46743953	      0.06828855	      0.46743953	      0.06345845	      0.67131530	      0.16774378	     -0.11223518	      0.15187283	     -0.27652239	      0.09361896
      1.55577936	     29.50161835	     -0.58126816	     -3.34518146	   -388.74653695	     -0.30318694	      0.15392486	      0.46744022	      0.06828841	      0.46744022	      0.06345831	      0.67131630	      0.16794879	     -0.11223533	      0.15187289	     -0.27652254	      0.09361880
      1.55577962	     29.50161820	     -0.60977800	     -3.34528060	   -388.67650407	     -0.30318698	      0.15392483	      0.46744037	      0.06828838	      0.46744037	      0.06345828	      0.67131651	      0.16799343	     -0.11223537	      0.15187290	     -0.27652257	      0.09361877
      1.55577971	     29.50161814	     -0.61137723	     -3.34531842	   -388.67287517	     -0.30318699	      0.15392482	      0.46744043	      0.06828837	      0.46744043	      0.06345826	      0.67131659	      0.16799595	     -0.11223538	      0.15187290	     -0.27652259	      0.09361876
      1.55577981	     29.50161808	     -0.61112179	     -3.34535624	   -388.67386204	     -0.30318700	      0.15392481	      0.46744049	      0.06828835	      0.46744049	      0.06345825	      0.67131668	      0.16799557	     -0.11223539	      0.15187291	     -0.27652260	      0.09361874
      1.55578030	     29.50161778	     -0.60984458	     -3.34554534	   -388.67879638	     -0.30318706	      0.15392475	      0.46744078	      0.06828829	      0.46744078	      0.06345819	      0.67131709	      0.16799366	     -0.11223546	      0.15187293	     -0.27652266	      0.09361868
      1.55578273	     29.50161631	     -0.60345885	     -3.34649086	   -388.70346719	     -0.30318738	      0.15392447	      0.46744222	      0.06828800	      0.46744222	      0.06345790	      0.67131916	      0.16798410	     -0.11223578	      0.15187305	     -0.27652298	      0.09361836
      1.55579489	     29.50160916	     -0.57153790	     -3.35121937	   -388.82679952	     -0.30318894	      0.15392305	      0.46744942	      0.06828654	      0.46744942	      0.06345645	      0.67132949	      0.16793641	     -0.11223739	      0.15187364	     -0.27652455	      0.09361676
      1.55585571	     29.50157925	     -0.41212673	     -3.37488443	   -389.44291254	     -0.30319678	      0.15391595	      0.46748543	      0.06827921	      0.46748543	      0.06344917	      0.67138114	      0.16769995	     -0.11224544	      0.15187659	     -0.27653240	      0.09360879
      1.55615978	     29.50157457	      0.37990646	     -3.49377015	   -392.50923993	     -0.30323595	      0.15388050	      0.46766549	      0.06824261	      0.46766549	      0.06341282	      0.67163941	      0.16656448	     -0.11228567	      0.15189129	     -0.27657167	      0.09356886
      1.55618566	     29.50158527	      0.44693085	     -3.50393361	   -392.76913643	     -0.30323929	      0.15387748	      0.46768081	      0.06823949	      0.46768081	      0.06340973	      0.67166140	      0.16647119	     -0.11228910	      0.15189254	     -0.27657501	      0.09356545
      1.55619941	     29.50159166	      0.48248969	     -3.50933238	   -392.90704807	     -0.30324106	      0.15387588	      0.46768895	      0.06823784	      0.46768895	      0.06340809	      0.67167307	      0.16642187	     -0.11229092	      0.15189320	     -0.27657679	      0.09356364
      1.55621368	     29.50159881	      0.51940762	     -3.51494243	   -393.05025090	     -0.30324290	      0.15387422	      0.46769741	      0.06823612	      0.46769741	      0.06340638	      0.67168519	      0.16637078	     -0.11229281	      0.15189389	     -0.27657863	      0.09356176
      1.55622258	     29.50160353	      0.54240796	     -3.51844011	   -393.13947846	     -0.30324404	      0.15387318	      0.46770267	      0.06823505	      0.46770267	      0.06340532	      0.67169275	      0.16633901	     -0.11229398	      0.15189431	     -0.27657978	      0.09356059
      1.55623288	     29.50160926	      0.56903400	     -3.52249159	   -393.24278159	     -0.30324537	      0.15387198	      0.46770878	      0.06823381	      0.46770878	      0.06340409	      0.67170150	      0.16630230	     -0.11229535	      0.15189481	     -0.27658111	      0.09355923
      1.55623957	     29.50161312	      0.58630699	     -3.52512130	   -393.30980271	     -0.30324623	      0.15387120	      0.46771274	      0.06823301	      0.46771274	      0.06340329	      0.67170718	      0.16627851	     -0.11229623	      0.15189513	     -0.27658197	      0.09355835
      1.55624439	     29.50161598	      0.59876369	     -3.52701845	   -393.35813889	     -0.30324685	      0.15387064	      0.46771559	      0.06823243	      0.46771559	      0.06340271	      0.67171128	      0.16626138	     -0.11229687	      0.15189536	     -0.27658260	      0.09355771
